<svg version="1.1" id="Layer_1" xmlns="http://www.w3.org/2000/svg" xmlns:xlink="http://www.w3.org/1999/xlink" x="0px" y="0px"
	 width="80px" viewBox="0 0 356 356" enable-background="new 0 0 356 356" xml:space="preserve">
<path fill="#FEFEFE" opacity="1.000000" stroke="none" 
	d="
M215.000000,357.000000 
	C143.333344,357.000000 72.166695,357.000000 1.000029,357.000000 
	C1.000019,238.333374 1.000019,119.666733 1.000010,1.000077 
	C119.666618,1.000051 238.333237,1.000051 356.999878,1.000026 
	C356.999939,119.666588 356.999939,238.333176 356.999969,356.999878 
	C309.833344,357.000000 262.666656,357.000000 215.000000,357.000000 
M197.707550,247.527100 
	C197.146103,247.870789 196.584671,248.214478 195.114365,248.784561 
	C190.422577,248.832947 185.730804,248.881332 180.831863,248.168579 
	C179.980133,247.794998 179.162201,247.268417 178.271408,247.071625 
	C169.990265,245.242340 161.595093,243.833679 153.440445,241.559265 
	C147.511566,239.905655 141.895752,237.129547 135.923965,234.231155 
	C134.998764,233.765213 134.073563,233.299271 132.979080,232.165649 
	C129.638504,230.126144 126.297928,228.086639 122.996185,226.005920 
	C122.996185,226.005920 122.954346,226.051544 122.937920,225.338562 
	C120.950531,223.897141 118.963150,222.455719 116.467834,220.755630 
	C115.961929,220.197006 115.456024,219.638382 114.914360,218.403778 
	C114.236458,217.976074 113.558556,217.548370 112.991753,216.997467 
	C112.991753,216.997467 112.874878,217.117737 112.954590,216.371292 
	C110.625107,213.924393 108.295624,211.477478 105.998779,209.000610 
	C105.998779,209.000610 105.968269,209.028732 106.008934,208.256607 
	C103.517715,203.821503 101.085739,199.351120 98.484268,194.981659 
	C97.976196,194.128281 96.810417,193.666489 95.783859,192.495346 
	C95.727013,192.131088 95.670166,191.766815 95.802292,190.587311 
	C94.841888,186.659119 93.995895,182.696930 92.845345,178.825226 
	C92.534790,177.780212 91.368401,176.352676 90.475296,176.260620 
	C88.978943,176.106369 87.386551,176.883881 85.834572,177.269272 
	C86.234215,178.514954 86.633865,179.760651 87.040306,181.792160 
	C86.962982,182.836044 86.885658,183.879913 86.138763,185.124008 
	C86.372681,186.771729 86.606598,188.419434 86.928123,190.910385 
	C86.935707,192.607086 86.943298,194.303787 86.380852,196.569397 
	C85.818001,200.986847 85.372597,205.383224 88.799370,209.935013 
	C88.897278,211.610901 88.995193,213.286789 88.501137,215.452377 
	C89.385414,220.325043 90.234795,225.204742 91.214378,230.058167 
	C91.301010,230.487427 92.237289,230.745193 92.970108,231.690414 
	C93.021812,232.111237 93.073517,232.532043 92.523552,233.398361 
	C94.761597,240.082184 96.977524,246.773758 99.304642,253.426422 
	C99.417999,253.750519 100.506248,253.733597 101.100304,253.871841 
	C101.100304,253.871841 101.123009,253.903687 101.017906,254.708282 
	C101.477272,259.661926 103.259003,263.777557 108.628349,266.303650 
	C109.151802,267.179871 109.675255,268.056091 109.641205,269.265900 
	C111.636673,273.565155 113.486305,278.002289 119.350952,279.300232 
	C119.554924,279.563232 119.758896,279.826233 120.140221,280.535797 
	C120.335358,280.817108 120.602524,280.981232 121.507179,281.316284 
	C122.682671,282.514587 123.858170,283.712921 125.001869,285.678192 
	C125.622162,289.940125 128.884048,289.875641 132.472916,290.156097 
	C132.747864,290.319153 132.954910,290.544556 133.024307,291.651367 
	C133.016403,292.737000 133.008514,293.822662 132.076675,294.945068 
	C122.416588,296.286346 112.740417,297.527557 103.113472,299.074982 
	C101.641586,299.311554 100.397148,300.963165 99.047501,301.960297 
	C100.100945,303.329987 100.879448,305.189667 102.265152,305.967224 
	C105.137306,307.578796 108.234512,309.339203 111.410515,309.767365 
	C128.291595,312.042877 145.183777,315.068542 162.150696,315.690247 
	C191.684814,316.772461 221.308075,316.533722 250.620789,311.836090 
	C257.398621,310.749847 263.958038,308.129120 270.498047,305.867767 
	C271.891296,305.386047 272.762604,303.394958 273.874390,302.099243 
	C272.372345,300.951630 271.002258,299.081238 269.345886,298.778748 
	C261.224884,297.295624 253.027710,296.229767 245.285690,294.473206 
	C247.319427,292.771851 249.247025,290.920441 251.404587,289.394135 
	C263.199646,281.050110 269.643311,269.740997 269.892334,255.273712 
	C270.141602,240.792389 270.470947,226.279266 269.793335,211.825653 
	C269.251007,200.258636 265.509003,189.495667 257.233490,180.781998 
	C247.798370,170.847321 236.049301,164.042465 223.502899,159.726471 
	C208.599976,154.599823 192.776184,152.215912 177.572998,147.868652 
	C169.901184,145.674927 162.667999,141.882568 155.345337,138.572311 
	C153.178207,137.592636 152.104950,135.648132 154.099136,133.300690 
	C156.424622,130.563248 158.713898,127.795044 161.664413,124.951019 
	C162.777359,124.005943 163.890320,123.060867 165.319031,121.865929 
	C165.319031,121.865929 165.721100,121.843849 166.249008,121.885071 
	C166.503448,121.660423 166.757889,121.435768 167.504059,120.916214 
	C167.880020,120.871750 168.255997,120.827286 169.559921,120.961990 
	C171.506012,120.758789 173.447968,120.493919 175.398911,120.363060 
	C183.775360,119.801231 192.080780,119.655296 199.104660,125.725777 
	C198.163162,127.290184 197.210251,128.847870 196.282181,130.420197 
	C192.604187,136.651474 194.984085,141.328903 202.275146,142.242874 
	C206.897400,142.822281 210.885269,141.647278 213.783203,137.857056 
	C215.528549,135.574280 217.039536,133.112320 219.400497,130.919449 
	C226.047333,134.288193 233.016724,137.153305 239.260223,141.151840 
	C247.250900,146.269287 254.927811,151.992493 259.295563,160.980927 
	C259.892273,162.208862 261.813354,163.714005 262.877350,163.546005 
	C264.038452,163.362671 265.166473,161.504044 265.830719,160.142395 
	C266.292114,159.196640 266.108185,157.831909 265.935150,156.696671 
	C263.781250,142.568512 263.037872,128.100693 256.789917,114.901886 
	C252.119110,105.034821 247.745819,94.945511 237.767303,88.801315 
	C234.525192,86.805023 231.719482,85.761696 228.153183,87.091179 
	C226.385086,79.745895 224.616974,72.400612 222.868835,64.446945 
	C222.362900,63.588165 221.856964,62.729385 221.245804,61.163460 
	C220.221954,59.587601 219.198120,58.011742 218.149628,56.099159 
	C218.149628,56.099159 217.825851,56.003475 217.714890,55.399643 
	C217.148285,54.836624 216.581665,54.273605 215.813629,53.106831 
	C211.638138,49.702080 207.462646,46.297333 202.889038,42.308426 
	C201.598145,41.771744 200.307266,41.235062 198.909576,40.653362 
	C198.909576,40.653362 198.793762,40.649231 198.294907,40.083523 
	C192.526337,38.872276 186.757782,37.661026 180.222351,36.182610 
	C179.151474,36.254501 178.080597,36.326397 176.152527,36.170990 
	C170.117050,37.488815 164.081573,38.806641 157.378006,40.063438 
	C156.587128,40.453617 155.796249,40.843796 154.291656,41.211830 
	C151.865616,42.486996 149.439575,43.762165 146.323334,45.114162 
	C132.217255,53.322212 120.524704,64.040688 111.458740,78.384529 
	C110.870415,79.514542 110.282089,80.644554 109.854729,81.852951 
	C109.854729,81.852951 109.740364,81.715210 109.168579,82.049919 
	C108.248009,83.801041 107.327446,85.552170 106.390663,87.438957 
	C106.390663,87.438957 106.299316,87.540565 105.866508,87.919548 
	C105.596474,88.619209 105.326431,89.318878 104.520493,90.489616 
	C102.631447,95.159195 100.742401,99.828773 98.343140,105.001579 
	C97.684227,107.004532 97.025314,109.007492 95.969162,111.708122 
	C95.319534,115.271652 94.741890,118.850090 94.007896,122.396156 
	C90.714233,138.308243 92.442017,153.787216 98.207085,168.843399 
	C98.892235,170.632767 100.916924,171.909225 102.691032,173.868591 
	C103.766708,173.819443 104.842392,173.770294 106.650406,173.794556 
	C109.225037,172.080368 111.799667,170.366196 114.858810,168.243805 
	C114.877678,166.837601 114.896538,165.431412 114.986397,163.258865 
	C114.671951,161.506393 114.357506,159.753906 114.782211,158.002930 
	C115.521370,158.000320 116.260536,157.997711 117.034729,158.776001 
	C118.632217,161.909607 120.229713,165.043228 121.929077,168.918457 
	C123.199799,174.643799 126.139114,179.019150 132.027451,181.805557 
	C133.860153,183.420975 134.077438,187.508804 138.716888,185.955582 
	C139.137741,186.012787 139.558578,186.070007 140.143173,186.344788 
	C140.143173,186.344788 140.413635,186.376175 140.584488,186.876038 
	C140.760590,187.180466 140.936691,187.484909 141.095978,188.529404 
	C146.512527,194.075638 153.360382,196.354187 161.113327,197.862625 
	C164.716187,199.225159 168.249161,200.833542 171.940994,201.883163 
	C175.864380,202.998596 179.914642,203.749252 183.956772,204.330353 
	C185.922379,204.612915 187.995728,204.146027 190.751129,204.048538 
	C191.478683,204.093369 192.206223,204.138199 193.018997,204.501785 
	C193.018997,204.501785 193.087753,204.824509 193.102325,205.539597 
	C195.048309,206.967819 197.065155,208.310135 198.924255,209.843704 
	C201.988327,212.371231 205.871689,214.490417 207.748734,217.740875 
	C210.901169,223.199966 211.103668,229.541748 209.640991,235.818298 
	C209.237289,237.550659 209.303848,239.392593 209.022720,241.063660 
	C209.022720,241.063660 209.181122,241.146484 208.447815,241.089478 
	C206.292786,243.047531 204.137756,245.005585 201.458633,247.427582 
	C200.303207,247.606812 199.147766,247.786057 197.707550,247.527100 
z"/>
<path fill="#2E2D2D" opacity="1.000000" stroke="none" 
	d="
M155.005371,41.233978 
	C155.796249,40.843796 156.587128,40.453617 157.961090,40.330734 
	C164.142609,39.715340 169.747971,38.872276 175.329819,37.894871 
	C175.957870,37.784889 176.452957,36.915508 177.009720,36.398285 
	C178.080597,36.326397 179.151474,36.254501 180.718292,36.643539 
	C187.074081,38.286057 192.933929,39.467644 198.793762,40.649231 
	C198.793762,40.649231 198.909576,40.653362 199.010681,41.076187 
	C200.503571,41.963539 201.895355,42.428066 203.287155,42.892590 
	C207.462646,46.297333 211.638138,49.702080 215.929016,53.746338 
	C216.638229,54.925053 217.232040,55.464264 217.825851,56.003475 
	C217.825851,56.003475 218.149628,56.099159 218.117264,56.686577 
	C219.173599,58.806198 220.262314,60.338402 221.351013,61.870605 
	C221.856964,62.729385 222.362900,63.588165 222.587952,64.973663 
	C221.511520,65.941124 220.674210,66.817886 219.927765,66.746361 
	C216.859955,66.452377 213.829773,65.777542 210.763748,65.446571 
	C209.764862,65.338737 208.699020,65.851219 207.663803,66.079987 
	C207.955505,67.067596 208.177139,68.083618 208.562164,69.033394 
	C208.845016,69.731125 209.341873,70.342094 210.036652,71.466301 
	C208.178375,71.772446 206.794464,72.000435 205.202576,71.976379 
	C199.503098,59.865028 190.134140,53.877960 177.181503,54.862053 
	C170.845993,55.343410 164.651047,57.675304 158.045929,59.029037 
	C154.814392,57.519386 154.094193,59.003010 153.969116,61.793228 
	C146.576035,68.382553 139.398865,74.734016 131.818375,81.099823 
	C130.742752,82.350662 130.070450,83.587166 129.343811,85.144226 
	C127.908386,87.284531 126.383018,89.013367 125.169769,90.938866 
	C117.640388,102.888542 113.284828,116.121002 112.252602,130.010147 
	C111.566261,139.245209 113.359619,148.664566 114.043060,158.001434 
	C114.357506,159.753906 114.671951,161.506393 114.681480,163.940979 
	C114.375809,165.966049 114.375053,167.309036 114.374298,168.652008 
	C111.799667,170.366196 109.225037,172.080368 105.989960,173.516815 
	C104.326569,173.300522 103.323631,173.361969 102.320694,173.423431 
	C100.916924,171.909225 98.892235,170.632767 98.207085,168.843399 
	C92.442017,153.787216 90.714233,138.308243 94.007896,122.396156 
	C94.741890,118.850090 95.319534,115.271652 96.505501,111.261536 
	C97.645676,108.709419 98.249512,106.603882 98.853348,104.498344 
	C100.742401,99.828773 102.631447,95.159195 105.140984,90.181702 
	C105.940758,89.096046 106.120033,88.318306 106.299316,87.540565 
	C106.299316,87.540565 106.390663,87.438957 106.788765,87.557465 
	C113.195175,87.898293 110.189964,84.259361 109.740364,81.715210 
	C109.740364,81.715210 109.854729,81.852951 110.150940,81.835342 
	C110.974487,80.573334 111.501823,79.328941 112.029160,78.084541 
	C120.524704,64.040688 132.217255,53.322212 146.814011,45.362877 
	C151.690857,47.352680 152.480515,42.767139 155.005371,41.233978 
M114.722191,103.116058 
	C114.530891,102.573875 114.339592,102.031693 114.148293,101.489510 
	C113.870331,101.616737 113.592377,101.743965 113.314423,101.871193 
	C113.639107,102.429115 113.963791,102.987045 114.722191,103.116058 
z"/>
<path fill="#DA7B14" opacity="1.000000" stroke="none" 
	d="
M193.087753,204.824509 
	C193.087753,204.824509 193.018997,204.501785 192.857422,203.990631 
	C186.341522,201.671616 180.020294,199.732651 173.617599,198.116455 
	C170.816437,197.409378 167.848694,197.362274 164.637390,197.000702 
	C163.910919,196.865906 163.503647,196.745895 162.974731,196.302826 
	C161.538071,195.688278 160.223038,195.396805 158.955292,195.062912 
	C159.002594,195.020493 158.931580,195.125946 158.808487,194.789230 
	C154.115311,192.667465 149.545227,190.882416 144.690475,189.028305 
	C143.943222,188.624634 143.480637,188.290039 142.953003,187.594208 
	C142.063187,186.947372 141.238403,186.661774 140.413635,186.376175 
	C140.413635,186.376175 140.143173,186.344788 139.970734,185.967041 
	C139.307571,185.350021 138.816849,185.110748 138.064453,184.780060 
	C137.556732,184.420837 137.310699,184.153015 137.010483,183.563202 
	C136.264572,182.843307 135.572830,182.445419 134.672577,181.967285 
	C134.197708,181.727188 134.009415,181.502045 133.932465,180.832611 
	C130.503708,176.447266 127.041672,172.440933 123.564163,168.394012 
	C123.548698,168.353439 123.461967,168.349075 123.610626,167.990204 
	C122.568352,165.732651 121.377419,163.833984 120.001488,161.674103 
	C119.576347,160.612579 119.336212,159.812256 119.352280,158.733734 
	C119.066505,152.633972 118.524521,146.812424 118.340134,141.055679 
	C122.643280,145.989212 126.024384,151.492340 130.644424,155.603012 
	C142.613174,166.252228 156.652786,172.885147 172.680847,175.192230 
	C177.549393,175.893005 182.312881,177.410187 187.076324,178.727600 
	C190.986649,179.809082 194.761993,181.899246 198.708054,182.233658 
	C210.696884,183.249634 219.724701,189.303986 227.359680,197.917267 
	C235.343781,206.924408 237.020523,218.554321 231.665024,227.515289 
	C226.669968,235.873215 219.749741,241.875839 209.835724,243.762634 
	C209.437180,243.334198 209.155533,243.139359 208.945251,242.646332 
	C209.071442,241.947601 209.126282,241.547043 209.181122,241.146484 
	C209.181122,241.146484 209.022720,241.063660 209.317871,241.116669 
	C209.613007,241.169662 210.050064,241.027893 210.337311,240.999695 
	C210.761139,240.312836 210.897705,239.654160 211.058777,238.709625 
	C211.332962,237.919907 211.582672,237.416077 212.243958,236.864914 
	C213.092621,233.516846 213.850632,230.221481 213.906158,226.914337 
	C214.068100,217.267624 207.078629,207.298737 198.186966,204.309799 
	C197.291428,204.008759 196.071487,204.672760 194.682083,204.867035 
	C193.937302,204.838287 193.512527,204.831390 193.087753,204.824509 
z"/>
<path fill="#D5D2CF" opacity="1.000000" stroke="none" 
	d="
M244.857452,295.016479 
	C253.027710,296.229767 261.224884,297.295624 269.345886,298.778748 
	C271.002258,299.081238 272.372345,300.951630 273.874390,302.099243 
	C272.762604,303.394958 271.891296,305.386047 270.498047,305.867767 
	C263.958038,308.129120 257.398621,310.749847 250.620789,311.836090 
	C221.308075,316.533722 191.684814,316.772461 162.150696,315.690247 
	C145.183777,315.068542 128.291595,312.042877 111.410515,309.767365 
	C108.234512,309.339203 105.137306,307.578796 102.265152,305.967224 
	C100.879448,305.189667 100.100945,303.329987 99.047508,301.960297 
	C100.397148,300.963165 101.641586,299.311554 103.113472,299.074982 
	C112.740417,297.527557 122.416588,296.286346 132.946014,294.955811 
	C135.875366,294.743713 137.935379,294.520813 140.332916,294.232544 
	C142.087769,294.814209 143.505112,295.461273 145.118591,296.409790 
	C164.739731,305.455353 185.196930,307.215912 205.904800,304.155792 
	C216.978989,302.519318 227.719864,298.627258 239.009583,295.780884 
	C241.224472,295.544586 243.040970,295.280548 244.857452,295.016479 
z"/>
<path fill="#DB7E16" opacity="1.000000" stroke="none" 
	d="
M168.631958,120.782822 
	C168.255997,120.827286 167.880020,120.871750 166.989075,121.020508 
	C166.223099,121.364479 165.972092,121.604164 165.721100,121.843849 
	C165.721100,121.843849 165.319031,121.865929 164.829315,121.929443 
	C163.206772,122.610741 162.073959,123.228516 160.597626,123.914291 
	C155.337677,126.617729 152.145142,130.640549 150.285553,135.910507 
	C141.495300,128.638672 139.146912,110.689026 149.062439,102.108467 
	C156.252151,95.886734 164.334686,92.884094 173.400879,92.063278 
	C183.710281,91.129906 193.920334,92.151680 203.981384,95.436081 
	C202.496765,102.570236 200.937576,109.286819 199.192169,116.275070 
	C198.925461,116.972740 198.844955,117.398727 198.779938,117.868027 
	C198.795441,117.911331 198.844376,117.833435 198.580139,117.998878 
	C198.097061,118.741074 197.878235,119.317825 197.262009,119.979584 
	C195.278656,119.797867 193.692749,119.530685 192.106689,119.264496 
	C184.162842,117.931252 176.222244,116.649200 168.631958,120.782822 
z"/>
<path fill="#333032" opacity="1.000000" stroke="none" 
	d="
M205.410553,72.228424 
	C206.794464,72.000435 208.178375,71.772446 210.036652,71.466301 
	C209.341873,70.342094 208.845016,69.731125 208.562164,69.033394 
	C208.177139,68.083618 207.955505,67.067596 207.663803,66.079987 
	C208.699020,65.851219 209.764862,65.338737 210.763748,65.446571 
	C213.829773,65.777542 216.859955,66.452377 219.927765,66.746361 
	C220.674210,66.817886 221.511520,65.941124 222.577957,65.277863 
	C224.616974,72.400612 226.385086,79.745895 228.138077,87.982620 
	C228.540390,103.634506 225.005020,117.500900 218.655838,130.730881 
	C217.039536,133.112320 215.528549,135.574280 213.783203,137.857056 
	C210.885269,141.647278 206.897400,142.822281 202.275146,142.242874 
	C194.984085,141.328903 192.604187,136.651474 196.282181,130.420197 
	C197.210251,128.847870 198.163162,127.290184 199.454102,125.223022 
	C200.256454,123.625099 200.709351,122.529922 201.448532,121.201767 
	C202.288849,119.360565 202.842880,117.752342 203.573624,115.920326 
	C203.856949,115.142647 203.963547,114.588753 204.307968,113.761871 
	C205.600281,108.964111 206.654785,104.439346 207.818802,99.567879 
	C207.948547,98.497795 207.968796,97.774414 208.155273,96.680458 
	C208.198624,92.209610 208.075775,88.109344 207.983017,83.607216 
	C207.145584,79.546379 206.278061,75.887405 205.410553,72.228424 
z"/>
<path fill="#F8F8F7" opacity="1.000000" stroke="none" 
	d="
M205.202576,71.976379 
	C206.278061,75.887405 207.145584,79.546379 207.768982,83.729889 
	C207.280167,84.493713 207.127808,84.781860 206.789185,84.886528 
	C205.180969,82.456093 204.326004,79.025536 202.430969,78.295776 
	C197.184708,76.275490 191.546539,74.465492 185.988449,74.211823 
	C168.413284,73.409714 152.060120,77.755241 137.530212,88.010117 
	C128.386215,94.463737 121.877296,102.982788 117.731705,113.384926 
	C113.435112,124.165932 113.777824,135.438721 114.173935,146.677643 
	C114.249695,148.826981 115.921585,150.920044 116.955627,153.348145 
	C117.161026,154.291733 117.267891,154.926254 117.265182,155.957977 
	C117.103645,156.901840 117.051674,157.448486 116.999695,157.995117 
	C116.260536,157.997711 115.521370,158.000320 114.412628,158.002182 
	C113.359619,148.664566 111.566261,139.245209 112.252602,130.010147 
	C113.284828,116.121002 117.640388,102.888542 125.169769,90.938866 
	C126.383018,89.013367 127.908386,87.284531 129.639984,84.972198 
	C130.734222,83.348236 131.477966,82.216866 132.221695,81.085487 
	C139.398865,74.734016 146.576035,68.382553 154.314285,61.721436 
	C156.047729,60.664398 157.220108,59.917015 158.392487,59.169632 
	C164.651047,57.675304 170.845993,55.343410 177.181503,54.862053 
	C190.134140,53.877960 199.503098,59.865028 205.202576,71.976379 
z"/>
<path fill="#FCEFC7" opacity="1.000000" stroke="none" 
	d="
M150.594589,135.984818 
	C152.145142,130.640549 155.337677,126.617729 160.620300,124.212662 
	C160.997299,124.642097 161.008102,124.841148 161.018890,125.040207 
	C158.713898,127.795044 156.424622,130.563248 154.099136,133.300690 
	C152.104950,135.648132 153.178207,137.592636 155.345337,138.572311 
	C162.667999,141.882568 169.901184,145.674927 177.572998,147.868652 
	C192.776184,152.215912 208.599976,154.599823 223.502899,159.726471 
	C236.049301,164.042465 247.798370,170.847321 257.233490,180.781998 
	C265.509003,189.495667 269.251007,200.258636 269.793335,211.825653 
	C270.470947,226.279266 270.141602,240.792389 269.892334,255.273712 
	C269.643311,269.740997 263.199646,281.050110 251.404587,289.394135 
	C249.247025,290.920441 247.319427,292.771851 245.071564,294.744873 
	C243.040970,295.280548 241.224472,295.544586 239.185730,295.493958 
	C242.162750,293.128174 245.444901,291.194427 248.545914,289.004211 
	C258.233215,282.162201 266.007965,273.654816 266.954376,261.347931 
	C267.792267,250.451904 267.203278,239.446152 267.300476,228.074982 
	C267.283752,221.666321 268.059448,215.503937 266.917328,209.720261 
	C265.569580,202.895493 262.562927,196.398315 260.200012,189.441101 
	C259.106384,187.728607 258.088287,186.334106 256.949738,184.625504 
	C244.537415,170.410355 228.425232,163.478394 210.946411,158.845306 
	C194.277908,154.427002 177.645218,149.852249 161.114655,144.948883 
	C156.598694,143.609329 152.156143,141.244370 150.594589,135.984818 
z"/>
<path fill="#F8EDCB" opacity="1.000000" stroke="none" 
	d="
M219.028168,130.825165 
	C225.005020,117.500900 228.540390,103.634506 228.236984,88.419777 
	C231.719482,85.761696 234.525192,86.805023 237.767303,88.801315 
	C247.745819,94.945511 252.119110,105.034821 256.789917,114.901886 
	C263.037872,128.100693 263.781250,142.568512 265.935150,156.696671 
	C266.108185,157.831909 266.292114,159.196640 265.830719,160.142395 
	C265.166473,161.504044 264.038452,163.362671 262.877350,163.546005 
	C261.813354,163.714005 259.892273,162.208862 259.295563,160.980927 
	C254.927811,151.992493 247.250900,146.269287 239.260223,141.151840 
	C233.016724,137.153305 226.047333,134.288193 219.028168,130.825165 
M258.205261,154.804916 
	C259.559448,156.379013 260.913605,157.953110 262.267792,159.527206 
	C262.664154,159.434494 263.060516,159.341782 263.456879,159.249069 
	C262.975525,154.264648 262.701050,149.249863 261.974884,144.301361 
	C259.592285,128.065430 255.584824,112.390846 245.126617,99.164558 
	C241.672241,94.795876 237.596634,91.198540 230.858612,88.368576 
	C230.858612,95.333710 230.858612,101.077156 230.371033,107.428177 
	C228.606079,113.644463 227.183578,119.986717 224.958862,126.033867 
	C223.409668,130.244888 224.075180,132.181763 228.407928,133.775986 
	C239.945480,138.021164 250.102722,144.458832 258.205261,154.804916 
z"/>
<path fill="#F1D461" opacity="1.000000" stroke="none" 
	d="
M89.093102,214.962677 
	C88.995193,213.286789 88.897278,211.610901 88.800995,209.108246 
	C88.185379,204.187820 87.568130,200.094162 86.950882,196.000488 
	C86.943298,194.303787 86.935707,192.607086 86.970901,190.064972 
	C86.945229,187.787643 86.876785,186.355713 86.808334,184.923798 
	C86.885658,183.879913 86.962982,182.836044 87.298828,181.205185 
	C89.799690,177.713943 90.242119,180.085175 91.017517,181.759552 
	C92.513733,184.990433 94.077530,188.190002 95.613312,191.402557 
	C95.670166,191.766815 95.727013,192.131088 95.887978,193.116714 
	C96.640839,195.509460 97.289581,197.280853 97.621155,199.027618 
	C96.524590,198.338882 95.745186,197.674744 94.959312,196.713776 
	C94.654739,195.936890 94.356644,195.456833 94.031754,194.681168 
	C93.690926,193.911285 93.376884,193.437027 93.043747,192.586670 
	C92.215721,190.218307 91.406792,188.226028 90.597870,186.233749 
	C90.094360,186.323334 89.590858,186.412918 89.087349,186.502502 
	C89.087349,189.008926 89.087349,191.515350 89.069122,194.433853 
	C89.073647,196.219879 89.096397,197.593842 89.124413,199.367920 
	C89.426109,202.180710 89.722542,204.593338 90.049896,207.382645 
	C90.320877,209.478256 90.560944,211.197189 90.585876,213.150635 
	C90.197556,213.994644 90.024353,214.604156 89.672195,215.119049 
	C89.493233,215.024445 89.093102,214.962677 89.093102,214.962677 
z"/>
<path fill="#FDF6CB" opacity="1.000000" stroke="none" 
	d="
M136.140366,234.853912 
	C141.895752,237.129547 147.511566,239.905655 153.440445,241.559265 
	C161.595093,243.833679 169.990265,245.242340 178.271408,247.071625 
	C179.162201,247.268417 179.980133,247.794998 180.507507,248.619034 
	C178.751450,249.152267 177.319748,249.235046 175.487518,249.250641 
	C173.731812,249.141983 172.376587,249.100510 170.778992,248.780212 
	C168.318695,248.093369 166.100784,247.685318 163.575378,247.203598 
	C162.848328,247.096756 162.428772,247.063583 161.779739,246.753967 
	C157.690567,245.326202 153.830872,244.174896 149.709045,242.942841 
	C149.089890,242.783615 148.732880,242.705154 148.201416,242.323059 
	C146.710312,241.611725 145.393692,241.204056 143.904785,240.732208 
	C143.732498,240.668045 143.365662,240.642746 143.229248,240.359238 
	C142.376724,239.735992 141.660645,239.396255 140.671875,238.896515 
	C139.279388,238.150970 138.159561,237.565445 136.946320,236.724030 
	C136.521317,236.038101 136.189743,235.608032 135.927734,235.096085 
	C135.997284,235.014206 136.140366,234.853912 136.140366,234.853912 
z"/>
<path fill="#D8C04D" opacity="1.000000" stroke="none" 
	d="
M89.851151,215.213669 
	C90.024353,214.604156 90.197556,213.994644 90.762329,213.464661 
	C91.439110,214.664474 91.724327,215.784775 91.998535,217.257141 
	C92.326462,218.409836 92.665382,219.210464 93.003731,220.004791 
	C93.003159,219.998459 92.991531,219.994202 92.981232,220.416534 
	C94.836609,227.966904 96.264488,235.248032 98.688744,242.180756 
	C101.210968,249.393646 104.695549,256.270050 107.437210,263.177002 
	C105.117729,260.008179 103.120369,256.955933 101.123009,253.903687 
	C101.123009,253.903687 101.100304,253.871841 101.085983,253.512695 
	C98.422844,246.419983 95.774033,239.686432 93.125221,232.952866 
	C93.073517,232.532043 93.021812,232.111237 92.913193,230.984589 
	C91.854568,225.257080 90.852867,220.235367 89.851151,215.213669 
z"/>
<path fill="#FAEECD" opacity="1.000000" stroke="none" 
	d="
M193.095032,205.182053 
	C193.512527,204.831390 193.937302,204.838287 194.896637,205.138641 
	C202.590668,208.623840 209.177628,212.840332 211.103348,220.846939 
	C212.334198,225.964447 211.655167,231.541321 211.832367,236.912247 
	C211.582672,237.416077 211.332962,237.919907 210.812592,238.882935 
	C210.377975,239.904053 210.214020,240.465973 210.050049,241.027893 
	C210.050064,241.027893 209.613007,241.169662 209.383820,241.176971 
	C209.303848,239.392593 209.237289,237.550659 209.640991,235.818298 
	C211.103668,229.541748 210.901169,223.199966 207.748734,217.740875 
	C205.871689,214.490417 201.988327,212.371231 198.924255,209.843704 
	C197.065155,208.310135 195.048309,206.967819 193.095032,205.182053 
z"/>
<path fill="#FAEECD" opacity="1.000000" stroke="none" 
	d="
M201.162231,121.434753 
	C200.709351,122.529922 200.256454,123.625099 199.552628,124.875610 
	C192.080780,119.655296 183.775360,119.801231 175.398911,120.363060 
	C173.447968,120.493919 171.506012,120.758789 169.095947,120.872406 
	C176.222244,116.649200 184.162842,117.931252 192.106689,119.264496 
	C193.692749,119.530685 195.278656,119.797867 197.579453,119.867523 
	C198.477646,119.058105 198.661011,118.445770 198.844376,117.833435 
	C198.844376,117.833435 198.795441,117.911331 199.119446,117.913605 
	C199.670700,117.920044 199.897949,117.924217 200.386337,118.197540 
	C200.819046,119.456047 200.990646,120.445396 201.162231,121.434753 
z"/>
<path fill="#F1D461" opacity="1.000000" stroke="none" 
	d="
M114.950119,219.079758 
	C115.456024,219.638382 115.961929,220.197006 116.841400,221.197754 
	C119.128090,223.110428 121.041222,224.580994 122.954346,226.051544 
	C122.954346,226.051544 122.996185,226.005920 123.098419,226.336273 
	C125.140396,228.439255 127.080139,230.211853 128.635040,232.001801 
	C127.016678,231.656677 125.504875,231.629623 124.596161,230.875687 
	C119.782448,226.881866 114.809189,223.001556 110.513474,218.489502 
	C107.579323,215.407578 105.664040,211.355667 103.586349,207.806030 
	C104.575745,208.259338 105.272003,208.644028 105.968269,209.028732 
	C105.968269,209.028732 105.998779,209.000610 106.017441,209.358917 
	C108.315689,212.184067 110.595284,214.650894 112.874878,217.117737 
	C112.874878,217.117737 112.991753,216.997467 112.996475,217.367798 
	C113.650833,218.185349 114.300476,218.632553 114.950119,219.079758 
z"/>
<path fill="#FAEECD" opacity="1.000000" stroke="none" 
	d="
M163.096359,196.625885 
	C163.503647,196.745895 163.910919,196.865906 164.908203,197.260345 
	C173.672226,199.695984 181.846268,201.857193 190.020309,204.018402 
	C187.995728,204.146027 185.922379,204.612915 183.956772,204.330353 
	C179.914642,203.749252 175.864380,202.998596 171.940994,201.883163 
	C168.249161,200.833542 164.716187,199.225159 161.064804,197.415924 
	C161.016281,196.969208 161.184296,196.760376 161.506073,196.773117 
	C162.250702,196.732529 162.673523,196.679199 163.096359,196.625885 
z"/>
<path fill="#CF9147" opacity="1.000000" stroke="none" 
	d="
M190.385712,204.033478 
	C181.846268,201.857193 173.672226,199.695984 165.227386,197.275116 
	C167.848694,197.362274 170.816437,197.409378 173.617599,198.116455 
	C180.020294,199.732651 186.341522,201.671616 192.814804,203.831268 
	C192.206223,204.138199 191.478683,204.093369 190.385712,204.033478 
z"/>
<path fill="#FDF6CB" opacity="1.000000" stroke="none" 
	d="
M95.707802,190.994934 
	C94.077530,188.190002 92.513733,184.990433 91.017517,181.759552 
	C90.242119,180.085175 89.799690,177.713943 87.295441,180.812271 
	C86.633865,179.760651 86.234215,178.514954 85.834572,177.269272 
	C87.386551,176.883881 88.978943,176.106369 90.475296,176.260620 
	C91.368401,176.352676 92.534790,177.780212 92.845345,178.825226 
	C93.995895,182.696930 94.841888,186.659119 95.707802,190.994934 
z"/>
<path fill="#FDF6CB" opacity="1.000000" stroke="none" 
	d="
M92.824387,233.175613 
	C95.774033,239.686432 98.422844,246.419983 101.106094,253.514511 
	C100.506248,253.733597 99.417999,253.750519 99.304642,253.426422 
	C96.977524,246.773758 94.761597,240.082184 92.824387,233.175613 
z"/>
<path fill="#FAEECD" opacity="1.000000" stroke="none" 
	d="
M143.018036,187.955475 
	C143.480637,188.290039 143.943222,188.624634 144.885437,189.309570 
	C149.887238,191.481918 154.409409,193.303940 158.931580,195.125946 
	C158.931580,195.125946 159.002594,195.020493 159.122162,195.296005 
	C159.889252,195.967804 160.536774,196.364090 161.184296,196.760376 
	C161.184296,196.760376 161.016281,196.969208 160.930496,197.074432 
	C153.360382,196.354187 146.512527,194.075638 141.423416,188.183563 
	C142.173248,187.876968 142.595642,187.916229 143.018036,187.955475 
z"/>
<path fill="#D8C04D" opacity="1.000000" stroke="none" 
	d="
M110.198708,268.932312 
	C109.675255,268.056091 109.151802,267.179871 108.366516,265.789520 
	C108.085709,264.838287 108.066727,264.401184 108.390045,264.002625 
	C112.909943,269.272125 117.087532,274.503113 121.189651,279.809784 
	C121.114182,279.885498 120.963226,280.036896 120.711922,280.026733 
	C120.294701,280.040771 120.128792,280.065002 119.962875,280.089233 
	C119.758896,279.826233 119.554924,279.563232 119.039200,278.858887 
	C115.884529,275.255798 113.041618,272.094055 110.198708,268.932312 
z"/>
<path fill="#FDF6CB" opacity="1.000000" stroke="none" 
	d="
M105.988602,208.642670 
	C105.272003,208.644028 104.575745,208.259338 103.500076,207.492828 
	C102.440430,206.351242 101.760193,205.591431 101.099350,204.620178 
	C101.118744,204.408707 101.016212,203.996567 100.997116,203.682281 
	C100.419090,202.806351 99.860161,202.244705 99.229477,201.383942 
	C98.751266,200.407288 98.344795,199.729767 97.938324,199.052231 
	C97.289581,197.280853 96.640839,195.509460 95.970047,193.381073 
	C96.810417,193.666489 97.976196,194.128281 98.484268,194.981659 
	C101.085739,199.351120 103.517715,203.821503 105.988602,208.642670 
z"/>
<path fill="#F1D461" opacity="1.000000" stroke="none" 
	d="
M175.888031,249.317810 
	C177.319748,249.235046 178.751450,249.152267 180.611084,248.999603 
	C185.730804,248.881332 190.422577,248.832947 195.562134,248.870911 
	C196.009888,248.957275 195.962158,249.350494 195.853546,249.710236 
	C189.390259,250.234055 183.035828,250.412918 176.680115,250.508713 
	C176.422134,250.512589 176.152328,249.732605 175.888031,249.317810 
z"/>
<path fill="#333032" opacity="1.000000" stroke="none" 
	d="
M176.581116,36.284637 
	C176.452957,36.915508 175.957870,37.784889 175.329819,37.894871 
	C169.747971,38.872276 164.142609,39.715340 158.295135,40.361248 
	C164.081573,38.806641 170.117050,37.488815 176.581116,36.284637 
z"/>
<path fill="#333032" opacity="1.000000" stroke="none" 
	d="
M198.544342,40.366375 
	C192.933929,39.467644 187.074081,38.286057 181.101730,36.777122 
	C186.757782,37.661026 192.526337,38.872276 198.544342,40.366375 
z"/>
<path fill="#FAEECD" opacity="1.000000" stroke="none" 
	d="
M131.835968,181.163528 
	C126.139114,179.019150 123.199799,174.643799 121.984589,168.441956 
	C122.040100,167.965469 122.252525,167.758942 122.455765,167.860733 
	C122.889671,168.168274 123.157326,168.297119 123.461967,168.349075 
	C123.461967,168.349075 123.548698,168.353439 123.595665,168.730652 
	C126.507202,172.978455 129.371780,176.849075 132.137482,180.831757 
	C132.038620,180.943817 131.835968,181.163528 131.835968,181.163528 
z"/>
<path fill="#FDF6CB" opacity="1.000000" stroke="none" 
	d="
M89.672195,215.119049 
	C90.852867,220.235367 91.854568,225.257080 92.817612,230.680695 
	C92.237289,230.745193 91.301010,230.487427 91.214378,230.058167 
	C90.234795,225.204742 89.385414,220.325043 88.797119,215.207520 
	C89.093102,214.962677 89.493233,215.024445 89.672195,215.119049 
z"/>
<path fill="#FDF6CB" opacity="1.000000" stroke="none" 
	d="
M109.919952,269.099121 
	C113.041618,272.094055 115.884529,275.255798 118.816284,278.741394 
	C113.486305,278.002289 111.636673,273.565155 109.919952,269.099121 
z"/>
<path fill="#FDF6CB" opacity="1.000000" stroke="none" 
	d="
M108.047752,263.964081 
	C108.066727,264.401184 108.085709,264.838287 108.118279,265.604858 
	C103.259003,263.777557 101.477272,259.661926 101.070457,254.305984 
	C103.120369,256.955933 105.117729,260.008179 107.492325,263.351410 
	C107.869560,263.642395 108.047752,263.964081 108.047752,263.964081 
z"/>
<path fill="#FDF6CB" opacity="1.000000" stroke="none" 
	d="
M86.665863,196.284943 
	C87.568130,200.094162 88.185379,204.187820 88.717361,208.698120 
	C85.372597,205.383224 85.818001,200.986847 86.665863,196.284943 
z"/>
<path fill="#FDF6CB" opacity="1.000000" stroke="none" 
	d="
M129.019882,231.984467 
	C127.080139,230.211853 125.140396,228.439255 123.079010,226.356903 
	C126.297928,228.086639 129.638504,230.126144 132.988800,232.586761 
	C132.998535,233.007889 132.849442,233.183090 132.523239,233.103485 
	C131.136215,232.675980 130.075409,232.328079 129.008270,231.986969 
	C129.001938,231.993729 129.019882,231.984467 129.019882,231.984467 
z"/>
<path fill="#FAEECD" opacity="1.000000" stroke="none" 
	d="
M117.017212,158.385559 
	C117.051674,157.448486 117.103645,156.901840 117.450119,156.225174 
	C118.195107,157.067398 118.645592,158.039673 119.096069,159.011932 
	C119.336212,159.812256 119.576347,160.612579 119.974312,162.024353 
	C120.838928,164.343506 121.545731,166.051224 122.252525,167.758942 
	C122.252525,167.758942 122.040100,167.965469 121.933655,168.071152 
	C120.229713,165.043228 118.632217,161.909607 117.017212,158.385559 
z"/>
<path fill="#FDF6CB" opacity="1.000000" stroke="none" 
	d="
M112.914734,216.744507 
	C110.595284,214.650894 108.315689,212.184067 106.001114,209.373901 
	C108.295624,211.477478 110.625107,213.924393 112.914734,216.744507 
z"/>
<path fill="#333032" opacity="1.000000" stroke="none" 
	d="
M154.648514,41.222904 
	C152.480515,42.767139 151.690857,47.352680 147.159119,45.324463 
	C149.439575,43.762165 151.865616,42.486996 154.648514,41.222904 
z"/>
<path fill="#FAEECD" opacity="1.000000" stroke="none" 
	d="
M208.814468,241.117981 
	C209.126282,241.547043 209.071442,241.947601 208.648346,242.781097 
	C207.074097,244.439392 205.868118,245.664734 204.499939,246.898987 
	C204.337723,246.907913 204.029877,247.024170 203.688553,247.006577 
	C202.892395,246.980530 202.437561,246.972076 201.982727,246.963623 
	C204.137756,245.005585 206.292786,243.047531 208.814468,241.117981 
z"/>
<path fill="#D8C04D" opacity="1.000000" stroke="none" 
	d="
M133.094040,290.832367 
	C132.954910,290.544556 132.747864,290.319153 132.127548,289.769745 
	C130.725433,288.344513 129.668686,287.305664 128.990341,286.292145 
	C132.296570,288.219513 135.224396,290.121521 137.972748,292.045471 
	C137.793274,292.067352 137.432205,292.047791 137.106232,292.110046 
	C135.551514,291.725616 134.322784,291.278992 133.094040,290.832367 
z"/>
<path fill="#333032" opacity="1.000000" stroke="none" 
	d="
M109.454468,81.882568 
	C110.189964,84.259361 113.195175,87.898293 106.796875,87.489639 
	C107.327446,85.552170 108.248009,83.801041 109.454468,81.882568 
z"/>
<path fill="#FDF6CB" opacity="1.000000" stroke="none" 
	d="
M133.059174,291.241882 
	C134.322784,291.278992 135.551514,291.725616 137.257919,292.439026 
	C138.488861,293.236511 139.242126,293.767212 139.995407,294.297913 
	C137.935379,294.520813 135.875366,294.743713 133.407974,294.937439 
	C133.008514,293.822662 133.016403,292.737000 133.059174,291.241882 
z"/>
<path fill="#FDF6CB" opacity="1.000000" stroke="none" 
	d="
M128.611938,286.266785 
	C129.668686,287.305664 130.725433,288.344513 131.913132,289.680725 
	C128.884048,289.875641 125.622162,289.940125 125.325607,285.396362 
	C126.439644,285.413361 127.229950,285.712219 128.158142,286.097839 
	C128.296036,286.184570 128.611938,286.266785 128.611938,286.266785 
z"/>
<path fill="#D8C04D" opacity="1.000000" stroke="none" 
	d="
M128.020248,286.011078 
	C127.229950,285.712219 126.439644,285.413361 125.341507,285.012878 
	C123.858170,283.712921 122.682671,282.514587 121.248474,280.924683 
	C120.989761,280.533112 120.963226,280.036896 120.963226,280.036896 
	C120.963226,280.036896 121.114182,279.885498 121.520508,279.899597 
	C123.957977,281.946136 125.989113,283.978607 128.020248,286.011078 
z"/>
<path fill="#FAEECD" opacity="1.000000" stroke="none" 
	d="
M137.064651,183.885208 
	C137.310699,184.153015 137.556732,184.420837 138.002075,185.004242 
	C138.201385,185.319824 138.099731,185.773026 138.099731,185.773026 
	C134.077438,187.508804 133.860153,183.420975 131.931702,181.484543 
	C131.835968,181.163528 132.038620,180.943817 132.412903,180.920349 
	C133.157852,181.001785 133.528503,181.106705 133.899170,181.211624 
	C134.009415,181.502045 134.197708,181.727188 134.798401,182.240265 
	C135.776703,183.024048 136.420685,183.454620 137.064651,183.885208 
z"/>
<path fill="#FDF6CB" opacity="1.000000" stroke="none" 
	d="
M122.946136,225.695053 
	C121.041222,224.580994 119.128090,223.110428 117.095367,221.327087 
	C118.963150,222.455719 120.950531,223.897141 122.946136,225.695053 
z"/>
<path fill="#333032" opacity="1.000000" stroke="none" 
	d="
M221.298401,61.517033 
	C220.262314,60.338402 219.173599,58.806198 218.129578,56.854939 
	C219.198120,58.011742 220.221954,59.587601 221.298401,61.517033 
z"/>
<path fill="#F1D461" opacity="1.000000" stroke="none" 
	d="
M201.720673,247.195587 
	C202.437561,246.972076 202.892395,246.980530 203.631927,247.351440 
	C201.947632,248.158554 199.978638,248.603226 198.007797,248.777206 
	C198.001419,248.326111 197.996872,248.145691 197.992340,247.965286 
	C199.147766,247.786057 200.303207,247.606812 201.720673,247.195587 
z"/>
<path fill="#333032" opacity="1.000000" stroke="none" 
	d="
M98.598244,104.749962 
	C98.249512,106.603882 97.645676,108.709419 96.704117,110.912704 
	C97.025314,109.007492 97.684227,107.004532 98.598244,104.749962 
z"/>
<path fill="#FDF6CB" opacity="1.000000" stroke="none" 
	d="
M86.473549,185.023895 
	C86.876785,186.355713 86.945229,187.787643 86.927094,189.643356 
	C86.606598,188.419434 86.372681,186.771729 86.473549,185.023895 
z"/>
<path fill="#FAEECD" opacity="1.000000" stroke="none" 
	d="
M161.341644,124.995613 
	C161.008102,124.841148 160.997299,124.642097 160.963806,124.144669 
	C162.073959,123.228516 163.206772,122.610741 164.671432,122.054382 
	C163.890320,123.060867 162.777359,124.005943 161.341644,124.995613 
z"/>
<path fill="#484747" opacity="1.000000" stroke="none" 
	d="
M114.616547,168.447906 
	C114.375053,167.309036 114.375809,165.966049 114.645981,164.324142 
	C114.896538,165.431412 114.877678,166.837601 114.616547,168.447906 
z"/>
<path fill="#333032" opacity="1.000000" stroke="none" 
	d="
M203.088104,42.600510 
	C201.895355,42.428066 200.503571,41.963539 199.064072,41.098694 
	C200.307266,41.235062 201.598145,41.771744 203.088104,42.600510 
z"/>
<path fill="#333032" opacity="1.000000" stroke="none" 
	d="
M111.743958,78.234535 
	C111.501823,79.328941 110.974487,80.573334 110.070450,81.796150 
	C110.282089,80.644554 110.870415,79.514542 111.743958,78.234535 
z"/>
<path fill="#484747" opacity="1.000000" stroke="none" 
	d="
M102.505859,173.646011 
	C103.323631,173.361969 104.326569,173.300522 105.623787,173.480103 
	C104.842392,173.770294 103.766708,173.819443 102.505859,173.646011 
z"/>
<path fill="#FDF6CB" opacity="1.000000" stroke="none" 
	d="
M133.073456,232.920609 
	C134.073563,233.299271 134.998764,233.765213 136.032166,234.542542 
	C136.140366,234.853912 135.997284,235.014206 135.609131,235.051117 
	C134.791901,235.090103 134.362839,235.092178 133.963486,235.055359 
	C133.993195,235.016464 133.915894,235.076309 133.848160,234.809219 
	C133.470093,234.089111 133.159775,233.636108 132.849442,233.183090 
	C132.849442,233.183090 132.998535,233.007889 133.073456,232.920609 
z"/>
<path fill="#CF9147" opacity="1.000000" stroke="none" 
	d="
M142.953003,187.594223 
	C142.595642,187.916229 142.173248,187.876968 141.431824,187.813538 
	C140.936691,187.484909 140.760590,187.180466 140.499054,186.626099 
	C141.238403,186.661774 142.063187,186.947372 142.953003,187.594223 
z"/>
<path fill="#333032" opacity="1.000000" stroke="none" 
	d="
M217.770370,55.701561 
	C217.232040,55.464264 216.638229,54.925053 216.029739,54.048214 
	C216.581665,54.273605 217.148285,54.836624 217.770370,55.701561 
z"/>
<path fill="#FDF6CB" opacity="1.000000" stroke="none" 
	d="
M114.932236,218.741760 
	C114.300476,218.632553 113.650833,218.185349 112.940933,217.429398 
	C113.558556,217.548370 114.236458,217.976074 114.932236,218.741760 
z"/>
<path fill="#333032" opacity="1.000000" stroke="none" 
	d="
M106.082916,87.730057 
	C106.120033,88.318306 105.940758,89.096046 105.408936,89.946167 
	C105.326431,89.318878 105.596474,88.619209 106.082916,87.730057 
z"/>
<path fill="#FDF6CB" opacity="1.000000" stroke="none" 
	d="
M197.849945,247.746185 
	C197.996872,248.145691 198.001419,248.326111 197.661530,248.787659 
	C196.865463,249.162689 196.413818,249.256592 195.962158,249.350494 
	C195.962158,249.350494 196.009888,248.957275 196.016556,248.757721 
	C196.584671,248.214478 197.146103,247.870789 197.849945,247.746185 
z"/>
<path fill="#CF9147" opacity="1.000000" stroke="none" 
	d="
M138.408310,185.864304 
	C138.099731,185.773026 138.201385,185.319824 138.263763,185.095657 
	C138.816849,185.110748 139.307571,185.350021 139.888855,185.858246 
	C139.558578,186.070007 139.137741,186.012787 138.408310,185.864304 
z"/>
<path fill="#FDF6CB" opacity="1.000000" stroke="none" 
	d="
M120.711922,280.026733 
	C120.963226,280.036896 120.989761,280.533112 120.965729,280.780640 
	C120.602524,280.981232 120.335358,280.817108 120.051544,280.312500 
	C120.128792,280.065002 120.294701,280.040771 120.711922,280.026733 
z"/>
<path fill="#FAEECD" opacity="1.000000" stroke="none" 
	d="
M165.985046,121.864456 
	C165.972092,121.604164 166.223099,121.364479 166.743225,121.167961 
	C166.757889,121.435768 166.503448,121.660423 165.985046,121.864456 
z"/>
<path fill="#333032" opacity="1.000000" stroke="none" 
	d="
M158.045929,59.029041 
	C157.220108,59.917015 156.047729,60.664398 154.530182,61.483574 
	C154.094193,59.003010 154.814392,57.519386 158.045929,59.029041 
z"/>
<path fill="#333032" opacity="1.000000" stroke="none" 
	d="
M131.818375,81.099823 
	C131.477966,82.216866 130.734222,83.348236 129.694305,84.651642 
	C130.070450,83.587166 130.742752,82.350662 131.818375,81.099823 
z"/>
<path fill="#333032" opacity="1.000000" stroke="none" 
	d="
M114.505333,103.330513 
	C113.963791,102.987045 113.639107,102.429115 113.314423,101.871185 
	C113.592377,101.743965 113.870331,101.616737 114.148300,101.489517 
	C114.339592,102.031693 114.530891,102.573875 114.505333,103.330513 
z"/>
<path fill="#D88509" opacity="1.000000" stroke="none" 
	d="
M209.952652,243.996216 
	C219.749741,241.875839 226.669968,235.873215 231.665024,227.515289 
	C237.020523,218.554321 235.343781,206.924408 227.359680,197.917267 
	C219.724701,189.303986 210.696884,183.249634 198.708054,182.233658 
	C194.761993,181.899246 190.986649,179.809082 187.076324,178.727600 
	C182.312881,177.410187 177.549393,175.893005 172.680847,175.192230 
	C156.652786,172.885147 142.613174,166.252228 130.644424,155.603012 
	C126.024384,151.492340 122.643280,145.989212 118.330551,140.594864 
	C117.985069,136.352371 118.006775,132.635483 118.290405,129.199173 
	C118.766968,130.952637 118.699883,132.538788 119.239388,133.881119 
	C125.292183,148.940826 135.857224,160.211853 150.607162,166.353882 
	C160.728424,170.568481 171.853699,172.508240 182.649521,174.933746 
	C197.740051,178.324127 212.755508,181.424255 225.345612,191.487854 
	C239.565002,202.853851 241.360535,223.567719 228.171356,236.064865 
	C223.854462,240.155289 218.085190,242.712936 212.647949,245.974518 
	C211.875565,246.029449 211.435349,246.081406 210.706055,246.094955 
	C210.223709,246.035049 210.030472,246.013565 209.856049,245.659409 
	C209.900803,244.883224 209.926727,244.439713 209.952652,243.996216 
z"/>
<path fill="#CF9147" opacity="1.000000" stroke="none" 
	d="
M212.243973,236.864914 
	C211.655167,231.541321 212.334198,225.964447 211.103348,220.846939 
	C209.177628,212.840332 202.590668,208.623840 195.216644,205.160492 
	C196.071487,204.672760 197.291428,204.008759 198.186966,204.309799 
	C207.078629,207.298737 214.068100,217.267624 213.906158,226.914337 
	C213.850632,230.221481 213.092621,233.516846 212.243973,236.864914 
z"/>
<path fill="#CF9147" opacity="1.000000" stroke="none" 
	d="
M118.028481,128.918610 
	C118.006775,132.635483 117.985069,136.352371 117.972946,140.530060 
	C118.524521,146.812424 119.066505,152.633972 119.352280,158.733734 
	C118.645592,158.039673 118.195107,157.067398 117.559685,155.827942 
	C117.267891,154.926254 117.161026,154.291733 117.007416,152.921371 
	C115.554962,141.692612 114.641441,131.213638 117.882248,121.301849 
	C117.953621,124.141060 117.991051,126.529839 118.028481,128.918610 
z"/>
<path fill="#CF9147" opacity="1.000000" stroke="none" 
	d="
M133.932465,180.832611 
	C133.528503,181.106705 133.157852,181.001785 132.511780,180.808289 
	C129.371780,176.849075 126.507202,172.978455 123.611130,168.771210 
	C127.041672,172.440933 130.503708,176.447266 133.932465,180.832611 
z"/>
<path fill="#CF9147" opacity="1.000000" stroke="none" 
	d="
M158.808487,194.789246 
	C154.409409,193.303940 149.887238,191.481918 145.170105,189.378632 
	C149.545227,190.882416 154.115311,192.667465 158.808487,194.789246 
z"/>
<path fill="#CF9147" opacity="1.000000" stroke="none" 
	d="
M209.835724,243.762634 
	C209.926727,244.439713 209.900803,244.883224 209.494995,245.720764 
	C207.630798,246.373230 206.146469,246.631653 204.662140,246.890076 
	C205.868118,245.664734 207.074097,244.439392 208.576996,243.079269 
	C209.155533,243.139359 209.437180,243.334198 209.835724,243.762634 
z"/>
<path fill="#CF9147" opacity="1.000000" stroke="none" 
	d="
M122.455765,167.860733 
	C121.545731,166.051224 120.838928,164.343506 120.159309,162.285553 
	C121.377419,163.833984 122.568352,165.732651 123.610626,167.990204 
	C123.157326,168.297119 122.889671,168.168274 122.455765,167.860733 
z"/>
<path fill="#CF9147" opacity="1.000000" stroke="none" 
	d="
M161.506073,196.773117 
	C160.536774,196.364090 159.889252,195.967804 159.074860,195.338425 
	C160.223038,195.396805 161.538071,195.688278 162.974731,196.302826 
	C162.673523,196.679199 162.250702,196.732529 161.506073,196.773117 
z"/>
<path fill="#CF9147" opacity="1.000000" stroke="none" 
	d="
M210.337311,240.999695 
	C210.214020,240.465973 210.377975,239.904053 210.788116,239.168823 
	C210.897705,239.654160 210.761139,240.312836 210.337311,240.999695 
z"/>
<path fill="#CF9147" opacity="1.000000" stroke="none" 
	d="
M137.010483,183.563202 
	C136.420685,183.454620 135.776703,183.024048 135.006897,182.320496 
	C135.572830,182.445419 136.264572,182.843307 137.010483,183.563202 
z"/>
<path fill="#DB7C14" opacity="1.000000" stroke="none" 
	d="
M267.244263,228.488831 
	C267.203278,239.446152 267.792267,250.451904 266.954376,261.347931 
	C266.007965,273.654816 258.233215,282.162201 248.545914,289.004211 
	C245.444901,291.194427 242.162750,293.128174 238.787323,295.466187 
	C227.719864,298.627258 216.978989,302.519318 205.904800,304.155792 
	C185.196930,307.215912 164.739731,305.455353 145.138214,295.957520 
	C144.377426,289.207611 143.666473,283.220184 143.252701,277.212250 
	C142.971161,273.124329 143.105728,269.007782 143.421173,264.980408 
	C154.858414,267.695709 165.928726,270.334656 177.370483,273.005676 
	C178.486649,273.036774 179.231354,273.035797 180.291168,273.306335 
	C199.970093,275.453644 218.311951,271.836823 235.632919,263.103485 
	C244.591492,258.586517 252.974258,253.091354 258.651764,244.619263 
	C262.025940,239.584244 264.413239,233.887878 267.244263,228.488831 
z"/>
<path fill="#E4AF1A" opacity="1.000000" stroke="none" 
	d="
M143.054230,264.904022 
	C143.105728,269.007782 142.971161,273.124329 143.252701,277.212250 
	C143.666473,283.220184 144.377426,289.207611 144.942108,295.656067 
	C143.505112,295.461273 142.087769,294.814209 140.332916,294.232544 
	C139.242126,293.767212 138.488861,293.236511 137.583893,292.376801 
	C137.432205,292.047791 137.793274,292.067352 138.346802,292.034485 
	C143.100601,290.666199 143.100601,290.666199 136.369446,283.176208 
	C141.001541,283.441650 141.242905,280.582092 141.000702,277.385071 
	C140.662460,272.920258 140.337906,268.454407 140.342529,263.980774 
	C141.123169,263.939484 141.568771,263.906464 142.227600,264.003265 
	C142.712006,264.337006 142.916473,264.593964 143.054230,264.904022 
z"/>
<path fill="#FBCB27" opacity="1.000000" stroke="none" 
	d="
M118.290405,129.199173 
	C117.991051,126.529839 117.953621,124.141060 117.900513,120.927032 
	C123.311554,100.787231 136.879257,89.257309 154.563705,81.586723 
	C166.696060,76.324341 179.468430,76.386780 192.234528,77.178879 
	C201.652771,77.763260 204.386673,81.204071 204.252228,90.562813 
	C204.230881,92.049393 204.026550,93.533348 203.906815,95.018517 
	C193.920334,92.151680 183.710281,91.129906 173.400879,92.063278 
	C164.334686,92.884094 156.252151,95.886734 149.062439,102.108467 
	C139.146912,110.689026 141.495300,128.638672 150.285553,135.910507 
	C152.156143,141.244370 156.598694,143.609329 161.114655,144.948883 
	C177.645218,149.852249 194.277908,154.427002 210.946411,158.845306 
	C228.425232,163.478394 244.537415,170.410355 256.902618,184.669449 
	C256.975922,185.027512 256.883423,185.117233 256.525574,185.088531 
	C255.444138,186.039383 254.720535,187.018921 253.660034,188.145523 
	C248.202927,189.298233 246.995193,188.178696 247.781052,183.231491 
	C248.163879,180.821564 248.435013,178.408020 244.999695,177.999695 
	C245.000000,178.000000 245.000610,178.000610 244.962906,177.651215 
	C240.229889,171.586349 236.947205,170.569107 234.481354,174.523148 
	C231.778870,178.856674 230.248779,176.691132 227.882767,174.375427 
	C226.435287,172.958725 224.142548,171.419662 222.350586,171.553848 
	C219.002258,171.804565 215.927460,172.850174 213.255463,169.640320 
	C212.886139,169.196655 210.076920,170.012146 209.163940,170.973114 
	C207.780823,172.428970 207.070480,174.523987 205.708298,177.017395 
	C205.679092,176.971420 206.005386,178.191238 206.734634,178.521591 
	C212.971207,181.346878 219.142120,184.428833 225.616943,186.577301 
	C229.981567,188.025589 232.020386,190.894424 234.451111,194.409439 
	C239.689713,201.984848 239.109650,210.556122 239.466660,218.834366 
	C239.758835,225.609268 238.498642,232.334610 231.519928,236.427017 
	C228.224854,238.359283 224.822250,240.927185 222.830109,244.070206 
	C219.848068,248.774963 216.799408,248.158981 212.980118,245.971558 
	C218.085190,242.712936 223.854462,240.155289 228.171356,236.064865 
	C241.360535,223.567719 239.565002,202.853851 225.345612,191.487854 
	C212.755508,181.424255 197.740051,178.324127 182.649521,174.933746 
	C171.853699,172.508240 160.728424,170.568481 150.607162,166.353882 
	C135.857224,160.211853 125.292183,148.940826 119.239388,133.881119 
	C118.699883,132.538788 118.766968,130.952637 118.290405,129.199173 
z"/>
<path fill="#FAEECD" opacity="1.000000" stroke="none" 
	d="
M203.981384,95.436081 
	C204.026550,93.533348 204.230881,92.049393 204.252228,90.562813 
	C204.386673,81.204071 201.652771,77.763260 192.234528,77.178879 
	C179.468430,76.386780 166.696060,76.324341 154.563705,81.586723 
	C136.879257,89.257309 123.311554,100.787231 117.866577,120.476593 
	C114.641441,131.213638 115.554962,141.692612 116.908875,152.612305 
	C115.921585,150.920044 114.249695,148.826981 114.173935,146.677643 
	C113.777824,135.438721 113.435112,124.165932 117.731705,113.384926 
	C121.877296,102.982788 128.386215,94.463737 137.530212,88.010117 
	C152.060120,77.755241 168.413284,73.409714 185.988449,74.211823 
	C191.546539,74.465492 197.184708,76.275490 202.430969,78.295776 
	C204.326004,79.025536 205.180969,82.456093 206.787598,85.330063 
	C207.372772,89.687630 207.680908,93.369339 207.989044,97.051041 
	C207.968796,97.774414 207.948547,98.497795 207.480362,99.677673 
	C206.044998,104.767746 205.057587,109.401306 204.070160,114.034866 
	C203.963547,114.588753 203.856949,115.142647 203.157471,115.901955 
	C201.735870,116.089363 200.907104,116.071342 199.903580,116.037735 
	C199.728806,116.022148 199.378387,116.003403 199.378387,116.003403 
	C200.937576,109.286819 202.496765,102.570236 203.981384,95.436081 
z"/>
<path fill="#FCEFC7" opacity="1.000000" stroke="none" 
	d="
M199.192169,116.275070 
	C199.378387,116.003403 199.728806,116.022148 199.901291,116.350067 
	C200.090912,117.094795 200.108063,117.511597 200.125214,117.928398 
	C199.897949,117.924217 199.670700,117.920044 199.103958,117.870300 
	C198.844955,117.398727 198.925461,116.972740 199.192169,116.275070 
z"/>
<path fill="#FCEFC7" opacity="1.000000" stroke="none" 
	d="
M198.580139,117.998878 
	C198.661011,118.445770 198.477646,119.058105 197.976837,119.782509 
	C197.878235,119.317825 198.097061,118.741074 198.580139,117.998878 
z"/>
<path fill="#D2D1D1" opacity="1.000000" stroke="none" 
	d="
M204.307983,113.761871 
	C205.057587,109.401306 206.044998,104.767746 207.370865,100.024384 
	C206.654785,104.439346 205.600281,108.964111 204.307983,113.761871 
z"/>
<path fill="#D2D1D1" opacity="1.000000" stroke="none" 
	d="
M208.155258,96.680458 
	C207.680908,93.369339 207.372772,89.687630 207.066223,85.562393 
	C207.127808,84.781860 207.280167,84.493713 207.738922,84.131760 
	C208.075775,88.109344 208.198624,92.209610 208.155258,96.680458 
z"/>
<path fill="#D2D1D1" opacity="1.000000" stroke="none" 
	d="
M200.386337,118.197540 
	C200.108063,117.511597 200.090912,117.094795 200.076065,116.365662 
	C200.907104,116.071342 201.735870,116.089363 202.980774,116.125748 
	C202.842880,117.752342 202.288849,119.360565 201.448547,121.201767 
	C200.990646,120.445396 200.819046,119.456047 200.386337,118.197540 
z"/>
<path fill="#FBCB27" opacity="1.000000" stroke="none" 
	d="
M267.300476,228.074982 
	C264.413239,233.887878 262.025940,239.584244 258.651764,244.619263 
	C252.974258,253.091354 244.591492,258.586517 235.632919,263.103485 
	C218.311951,271.836823 199.970093,275.453644 180.582458,273.004761 
	C186.139877,271.955017 191.743759,270.906464 197.297455,271.126160 
	C207.478836,271.528931 216.838211,268.138580 225.920212,264.750061 
	C236.845276,260.673950 245.824921,253.139267 254.097809,244.751770 
	C261.750305,236.993256 265.809723,228.200897 264.944763,217.307526 
	C264.836731,215.947144 264.396851,213.985489 263.450073,213.431396 
	C259.939087,211.376755 261.175873,209.187851 262.751068,206.817291 
	C264.407379,204.324677 264.986053,201.972229 261.994171,199.604111 
	C261.297852,196.165283 260.609772,193.121719 260.008881,189.996948 
	C260.096039,189.915741 260.275513,189.759109 260.275513,189.759109 
	C262.562927,196.398315 265.569580,202.895493 266.917328,209.720261 
	C268.059448,215.503937 267.283752,221.666321 267.300476,228.074982 
z"/>
<path fill="#FBCB27" opacity="1.000000" stroke="none" 
	d="
M257.023041,184.983566 
	C258.088287,186.334106 259.106384,187.728607 260.200012,189.441101 
	C260.275513,189.759109 260.096039,189.915741 259.690308,189.971405 
	C258.857178,190.017471 258.429810,190.007874 257.894165,189.779724 
	C257.587128,189.288254 257.326782,189.100800 257.002869,188.608856 
	C256.961731,187.185028 256.922577,186.151138 256.883423,185.117233 
	C256.883423,185.117233 256.975922,185.027512 257.023041,184.983566 
z"/>
<path fill="#F9CC35" opacity="1.000000" stroke="none" 
	d="
M230.858612,106.820595 
	C230.858612,101.077156 230.858612,95.333710 230.858612,88.368576 
	C237.596634,91.198540 241.672241,94.795876 245.126617,99.164558 
	C255.584824,112.390846 259.592285,128.065430 261.974884,144.301361 
	C262.701050,149.249863 262.975525,154.264648 263.456879,159.249069 
	C263.060516,159.341782 262.664154,159.434494 262.267792,159.527206 
	C260.913605,157.953110 259.559448,156.379013 258.314240,154.267181 
	C257.654541,150.780441 257.060150,147.772598 256.087891,144.892349 
	C251.053619,129.979065 242.372513,117.454391 230.858612,106.820595 
z"/>
<path fill="#DB811E" opacity="1.000000" stroke="none" 
	d="
M230.614822,107.124390 
	C242.372513,117.454391 251.053619,129.979065 256.087891,144.892349 
	C257.060150,147.772598 257.654541,150.780441 258.150970,153.976593 
	C250.102722,144.458832 239.945480,138.021164 228.407928,133.775986 
	C224.075180,132.181763 223.409668,130.244888 224.958862,126.033867 
	C227.183578,119.986717 228.606079,113.644463 230.614822,107.124390 
z"/>
<path fill="#FDCE20" opacity="1.000000" stroke="none" 
	d="
M142.014374,263.873413 
	C141.568771,263.906464 141.123169,263.939484 140.178925,263.672089 
	C137.119583,261.659607 134.673004,259.738098 131.979279,258.270142 
	C116.613518,249.896683 104.569427,238.229950 96.150757,222.832153 
	C95.510223,221.660614 94.063515,220.929855 92.991531,219.994202 
	C92.991531,219.994202 93.003159,219.998459 93.009216,219.659241 
	C92.680031,218.515045 92.344788,217.710068 92.009537,216.905090 
	C91.724327,215.784775 91.439110,214.664474 90.977448,213.230148 
	C90.560944,211.197189 90.320877,209.478256 90.431877,207.329010 
	C91.505188,204.929764 92.521629,202.993820 92.748726,200.969330 
	C92.807610,200.444458 90.395988,199.642487 89.119148,198.967789 
	C89.096397,197.593842 89.073647,196.219879 89.407722,194.391693 
	C90.863983,193.612549 91.963417,193.287659 93.062851,192.962769 
	C93.376884,193.437027 93.690926,193.911285 93.793648,194.847046 
	C94.043488,195.875885 94.504631,196.443253 94.965782,197.010605 
	C95.745186,197.674744 96.524590,198.338882 97.621155,199.027618 
	C98.344795,199.729767 98.751266,200.407288 99.130264,201.760696 
	C99.094872,202.950089 99.086937,203.463608 98.680084,203.990540 
	C93.308372,204.866852 95.500008,207.927536 95.130638,210.202606 
	C95.619301,210.418900 96.107964,210.635193 96.596626,210.851486 
	C98.091064,208.844864 99.585510,206.838242 101.079956,204.831635 
	C101.760193,205.591431 102.440430,206.351242 103.206940,207.424225 
	C105.664040,211.355667 107.579323,215.407578 110.513474,218.489502 
	C114.809189,223.001556 119.782448,226.881866 124.596161,230.875687 
	C125.504875,231.629623 127.016678,231.656677 128.635040,232.001801 
	C129.019882,231.984467 129.001938,231.993729 129.008209,232.373444 
	C130.648300,233.527527 132.282104,234.301910 133.915894,235.076294 
	C133.915894,235.076309 133.993195,235.016464 134.030426,235.394562 
	C135.058334,236.175064 136.049042,236.577484 137.039734,236.979904 
	C138.159561,237.565445 139.279388,238.150970 140.672195,239.217804 
	C140.966171,240.127457 140.987167,240.555801 141.010010,241.359344 
	C142.920288,246.727371 146.962799,248.547989 150.435913,245.853424 
	C151.895874,246.209061 152.998413,246.529114 153.883865,247.141510 
	C149.839035,248.540054 146.011292,249.646240 141.992599,250.807617 
	C144.879959,255.660309 149.060867,254.979553 153.051849,255.335007 
	C154.067307,255.446060 155.033356,255.223343 156.084473,254.614990 
	C157.828049,253.819427 159.530731,253.533188 161.131470,252.961517 
	C162.482773,252.478958 163.715836,251.665253 165.301895,250.975906 
	C166.070297,250.624847 166.538040,250.296021 167.406921,249.970596 
	C168.877365,250.023407 169.946671,250.072800 171.092407,250.477386 
	C173.112762,251.554626 175.056686,252.276703 177.008957,253.378738 
	C178.075180,257.701477 180.777298,257.490326 183.607086,256.130646 
	C187.685287,254.171051 190.036987,255.752991 192.414062,260.546539 
	C187.649231,260.546539 183.615585,260.993744 179.728241,260.430725 
	C175.110504,259.761871 170.666000,257.872437 166.046967,257.249969 
	C164.381439,257.025543 162.292282,258.762482 160.689285,259.987549 
	C160.217636,260.347961 160.520264,262.858917 160.861786,262.952850 
	C162.503220,263.404358 164.278809,263.467041 166.007996,263.478210 
	C168.800812,263.496155 171.601288,263.208130 174.386703,263.326782 
	C183.414612,263.711365 192.437775,264.210510 201.461319,264.692383 
	C203.872971,264.821136 206.279495,265.045715 208.688370,265.226318 
	C208.632904,265.935242 208.577423,266.644135 208.521957,267.353058 
	C206.515900,267.264557 204.488739,266.945190 202.507294,267.126221 
	C192.068390,268.079926 181.721268,269.670441 171.268036,266.305450 
	C168.694992,265.477173 164.428391,264.042328 161.619141,267.995544 
	C156.092743,266.298004 150.978317,264.494324 145.773788,263.005585 
	C144.691910,262.696106 143.276230,263.553680 142.014374,263.873413 
M128.818893,237.570694 
	C127.557449,236.639542 126.296005,235.708374 125.034554,234.777222 
	C125.268059,238.815567 125.268059,238.815567 128.818893,237.570694 
M152.499664,259.071136 
	C151.955994,259.798523 151.412338,260.525909 150.868683,261.253296 
	C151.971649,261.725708 153.074615,262.198090 154.177597,262.670471 
	C153.856949,261.521332 153.536316,260.372223 152.499664,259.071136 
M118.383278,231.372238 
	C118.214943,232.416504 118.046616,233.460785 117.878281,234.505051 
	C118.524910,234.463943 119.171539,234.422836 119.818176,234.381744 
	C119.540359,233.480255 119.262543,232.578766 118.383278,231.372238 
z"/>
<path fill="#F9CB2D" opacity="1.000000" stroke="none" 
	d="
M89.124413,199.367920 
	C90.395988,199.642487 92.807610,200.444458 92.748726,200.969330 
	C92.521629,202.993820 91.505188,204.929764 90.400955,206.952347 
	C89.722542,204.593338 89.426109,202.180710 89.124413,199.367920 
z"/>
<path fill="#F9CB2D" opacity="1.000000" stroke="none" 
	d="
M93.043747,192.586670 
	C91.963417,193.287659 90.863983,193.612549 89.425949,193.979614 
	C89.087349,191.515350 89.087349,189.008926 89.087349,186.502502 
	C89.590858,186.412918 90.094360,186.323334 90.597870,186.233749 
	C91.406792,188.226028 92.215721,190.218307 93.043747,192.586670 
z"/>
<path fill="#F9CB2D" opacity="1.000000" stroke="none" 
	d="
M94.959312,196.713776 
	C94.504631,196.443253 94.043488,195.875885 93.820442,195.142654 
	C94.356644,195.456833 94.654739,195.936890 94.959312,196.713776 
z"/>
<path fill="#FBCB27" opacity="1.000000" stroke="none" 
	d="
M177.000610,252.998779 
	C175.056686,252.276703 173.112762,251.554626 171.102188,250.210999 
	C171.030823,249.412628 171.026093,249.235840 171.021378,249.059036 
	C172.376587,249.100510 173.731812,249.141983 175.487518,249.250641 
	C176.152328,249.732605 176.422134,250.512589 176.680115,250.508713 
	C183.035828,250.412918 189.390259,250.234055 195.853546,249.710236 
	C196.413818,249.256592 196.865463,249.162689 197.663391,249.058350 
	C199.978638,248.603226 201.947632,248.158554 203.973251,247.369019 
	C204.029877,247.024170 204.337723,246.907913 204.499939,246.898987 
	C206.146469,246.631653 207.630798,246.373230 209.476181,246.053467 
	C210.030472,246.013565 210.223709,246.035049 210.638565,246.433670 
	C206.400146,249.512543 201.956177,252.241684 197.457275,254.877060 
	C196.963486,255.166306 196.148468,254.975204 195.492371,254.908737 
	C189.327209,254.284271 183.164230,253.638428 177.000610,252.998779 
z"/>
<path fill="#FBCB27" opacity="1.000000" stroke="none" 
	d="
M150.078491,245.817825 
	C146.962799,248.547989 142.920288,246.727371 141.407867,241.347717 
	C142.324463,240.854858 142.845062,240.748810 143.365662,240.642761 
	C143.365662,240.642746 143.732498,240.668045 144.062866,241.053741 
	C145.720779,241.835205 147.048325,242.230957 148.375885,242.626709 
	C148.732880,242.705154 149.089890,242.783615 149.710037,243.294342 
	C150.008286,244.423676 150.043396,245.120743 150.078491,245.817825 
z"/>
<path fill="#F1D461" opacity="1.000000" stroke="none" 
	d="
M150.435913,245.853424 
	C150.043396,245.120743 150.008286,244.423676 149.972198,243.375092 
	C153.830872,244.174896 157.690567,245.326202 161.568863,247.000153 
	C160.058472,247.350143 158.529480,247.177505 156.637054,246.980591 
	C155.549393,246.920609 154.825165,246.884888 154.100937,246.849182 
	C152.998413,246.529114 151.895874,246.209061 150.435913,245.853424 
z"/>
<path fill="#FBCB27" opacity="1.000000" stroke="none" 
	d="
M157.000473,247.004883 
	C158.529480,247.177505 160.058472,247.350143 161.798355,247.276611 
	C162.428772,247.063583 162.848328,247.096756 163.663620,247.498581 
	C165.041504,248.567230 166.023651,249.267212 167.005783,249.967194 
	C166.538040,250.296021 166.070297,250.624847 165.058594,250.700928 
	C162.009903,249.300400 159.505188,248.152634 157.000473,247.004883 
z"/>
<path fill="#F1D461" opacity="1.000000" stroke="none" 
	d="
M167.406921,249.970596 
	C166.023651,249.267212 165.041504,248.567230 163.971130,247.572266 
	C166.100784,247.685318 168.318695,248.093369 170.778992,248.780212 
	C171.026093,249.235840 171.030823,249.412628 171.025757,249.855820 
	C169.946671,250.072800 168.877365,250.023407 167.406921,249.970596 
z"/>
<path fill="#F1D461" opacity="1.000000" stroke="none" 
	d="
M148.201416,242.323059 
	C147.048325,242.230957 145.720779,241.835205 144.235138,241.117920 
	C145.393692,241.204056 146.710312,241.611725 148.201416,242.323059 
z"/>
<path fill="#F1D461" opacity="1.000000" stroke="none" 
	d="
M136.946320,236.724030 
	C136.049042,236.577484 135.058334,236.175064 134.000702,235.433441 
	C134.362839,235.092178 134.791901,235.090103 135.539566,235.132996 
	C136.189743,235.608032 136.521317,236.038101 136.946320,236.724030 
z"/>
<path fill="#F1D461" opacity="1.000000" stroke="none" 
	d="
M143.229248,240.359253 
	C142.845062,240.748810 142.324463,240.854858 141.406006,240.972534 
	C140.987167,240.555801 140.966171,240.127457 140.944855,239.377808 
	C141.660645,239.396255 142.376724,239.735992 143.229248,240.359253 
z"/>
<path fill="#E0B712" opacity="1.000000" stroke="none" 
	d="
M92.981232,220.416534 
	C94.063515,220.929855 95.510223,221.660614 96.150757,222.832153 
	C104.569427,238.229950 116.613518,249.896683 131.979279,258.270142 
	C134.673004,259.738098 137.119583,261.659607 139.843903,263.680298 
	C140.337906,268.454407 140.662460,272.920258 141.000702,277.385071 
	C141.242905,280.582092 141.001541,283.441650 136.369446,283.176208 
	C143.100601,290.666199 143.100601,290.666199 138.526276,292.012604 
	C135.224396,290.121521 132.296570,288.219513 128.990341,286.292145 
	C128.611938,286.266785 128.296036,286.184570 128.158142,286.097839 
	C125.989113,283.978607 123.957977,281.946136 121.595985,279.823853 
	C117.087532,274.503113 112.909943,269.272125 108.390045,264.002625 
	C108.047752,263.964081 107.869560,263.642395 107.814445,263.467987 
	C104.695549,256.270050 101.210968,249.393646 98.688744,242.180756 
	C96.264488,235.248032 94.836609,227.966904 92.981232,220.416534 
z"/>
<path fill="#E0B712" opacity="1.000000" stroke="none" 
	d="
M91.998535,217.257141 
	C92.344788,217.710068 92.680031,218.515045 93.009796,219.665558 
	C92.665382,219.210464 92.326462,218.409836 91.998535,217.257141 
z"/>
<path fill="#F9CB2D" opacity="1.000000" stroke="none" 
	d="
M101.099350,204.620178 
	C99.585510,206.838242 98.091064,208.844864 96.596626,210.851486 
	C96.107964,210.635193 95.619301,210.418900 95.130638,210.202606 
	C95.500008,207.927536 93.308372,204.866852 99.001961,203.997009 
	C100.153908,203.992233 100.585060,203.994400 101.016212,203.996567 
	C101.016212,203.996567 101.118744,204.408707 101.099350,204.620178 
z"/>
<path fill="#F1D461" opacity="1.000000" stroke="none" 
	d="
M100.997116,203.682281 
	C100.585060,203.994400 100.153908,203.992233 99.400879,203.983597 
	C99.086937,203.463608 99.094872,202.950089 99.202011,202.059814 
	C99.860161,202.244705 100.419090,202.806351 100.997116,203.682281 
z"/>
<path fill="#F1D461" opacity="1.000000" stroke="none" 
	d="
M133.848160,234.809204 
	C132.282104,234.301910 130.648300,233.527527 129.014557,232.366669 
	C130.075409,232.328079 131.136215,232.675980 132.523239,233.103485 
	C133.159775,233.636108 133.470093,234.089111 133.848160,234.809204 
z"/>
<path fill="#FECE1F" opacity="1.000000" stroke="none" 
	d="
M177.008957,253.378738 
	C183.164230,253.638428 189.327209,254.284271 195.492371,254.908737 
	C196.148468,254.975204 196.963486,255.166306 197.457275,254.877060 
	C201.956177,252.241684 206.400146,249.512543 210.927658,246.472092 
	C211.435349,246.081406 211.875565,246.029449 212.647949,245.974518 
	C216.799408,248.158981 219.848068,248.774963 222.830109,244.070206 
	C224.822250,240.927185 228.224854,238.359283 231.519928,236.427017 
	C238.498642,232.334610 239.758835,225.609268 239.466660,218.834366 
	C239.109650,210.556122 239.689713,201.984848 234.451111,194.409439 
	C232.020386,190.894424 229.981567,188.025589 225.616943,186.577301 
	C219.142120,184.428833 212.971207,181.346878 206.734634,178.521591 
	C206.005386,178.191238 205.679092,176.971420 205.708298,177.017395 
	C207.070480,174.523987 207.780823,172.428970 209.163940,170.973114 
	C210.076920,170.012146 212.886139,169.196655 213.255463,169.640320 
	C215.927460,172.850174 219.002258,171.804565 222.350586,171.553848 
	C224.142548,171.419662 226.435287,172.958725 227.882767,174.375427 
	C230.248779,176.691132 231.778870,178.856674 234.481354,174.523148 
	C236.947205,170.569107 240.229889,171.586349 244.583374,177.657150 
	C243.226868,178.991135 242.212204,179.969803 241.197540,180.948486 
	C242.439301,181.723282 243.681061,182.498093 245.720291,183.770493 
	C245.359421,180.881577 245.179398,179.440475 244.999390,177.999390 
	C248.435013,178.408020 248.163879,180.821564 247.781052,183.231491 
	C246.995193,188.178696 248.202927,189.298233 253.955536,188.271515 
	C255.393600,188.499893 256.199249,188.749344 257.004883,188.998779 
	C257.326782,189.100800 257.587128,189.288254 257.674408,189.889008 
	C257.288818,190.417435 257.100739,190.679703 256.650818,191.007782 
	C253.826187,192.785568 254.761215,194.861755 259.005920,197.366913 
	C260.010345,198.492279 261.006409,199.245834 262.002441,199.999390 
	C264.986053,201.972229 264.407379,204.324677 262.751068,206.817291 
	C261.175873,209.187851 259.939087,211.376755 263.450073,213.431396 
	C264.396851,213.985489 264.836731,215.947144 264.944763,217.307526 
	C265.809723,228.200897 261.750305,236.993256 254.097809,244.751770 
	C245.824921,253.139267 236.845276,260.673950 225.920212,264.750061 
	C216.838211,268.138580 207.478836,271.528931 197.297455,271.126160 
	C191.743759,270.906464 186.139877,271.955017 180.267334,272.733215 
	C179.231354,273.035797 178.486649,273.036774 177.297180,272.639740 
	C176.034058,271.803436 175.262680,271.180328 174.389343,270.958313 
	C170.274582,269.912415 166.131866,268.976410 161.999130,268.001221 
	C164.428391,264.042328 168.694992,265.477173 171.268036,266.305450 
	C181.721268,269.670441 192.068390,268.079926 202.507294,267.126221 
	C204.488739,266.945190 206.515900,267.264557 208.521957,267.353058 
	C208.577423,266.644135 208.632904,265.935242 208.688370,265.226318 
	C206.279495,265.045715 203.872971,264.821136 201.461319,264.692383 
	C192.437775,264.210510 183.414612,263.711365 174.386703,263.326782 
	C171.601288,263.208130 168.800812,263.496155 166.007996,263.478210 
	C164.278809,263.467041 162.503220,263.404358 160.861786,262.952850 
	C160.520264,262.858917 160.217636,260.347961 160.689285,259.987549 
	C162.292282,258.762482 164.381439,257.025543 166.046967,257.249969 
	C170.666000,257.872437 175.110504,259.761871 179.728241,260.430725 
	C183.615585,260.993744 187.649231,260.546539 192.414062,260.546539 
	C190.036987,255.752991 187.685287,254.171051 183.607086,256.130646 
	C180.777298,257.490326 178.075180,257.701477 177.008957,253.378738 
M222.269974,178.095688 
	C222.768204,178.040894 223.266434,177.986115 223.764664,177.931320 
	C223.650040,177.485413 223.535416,177.039505 223.420807,176.593613 
	C222.995361,176.895355 222.569931,177.197113 222.269974,178.095688 
z"/>
<path fill="#FBCB27" opacity="1.000000" stroke="none" 
	d="
M161.619141,267.995544 
	C166.131866,268.976410 170.274582,269.912415 174.389343,270.958313 
	C175.262680,271.180328 176.034058,271.803436 176.925720,272.607666 
	C165.928726,270.334656 154.858414,267.695709 143.421173,264.980408 
	C142.916473,264.593964 142.712006,264.337006 142.227600,264.003265 
	C143.276230,263.553680 144.691910,262.696106 145.773788,263.005585 
	C150.978317,264.494324 156.092743,266.298004 161.619141,267.995544 
z"/>
<path fill="#FDCF1D" opacity="1.000000" stroke="none" 
	d="
M257.002869,188.608856 
	C256.199249,188.749344 255.393600,188.499893 254.292450,188.124451 
	C254.720535,187.018921 255.444138,186.039383 256.525574,185.088531 
	C256.922577,186.151138 256.961731,187.185028 257.002869,188.608856 
z"/>
<path fill="#FDCF1D" opacity="1.000000" stroke="none" 
	d="
M261.994171,199.604111 
	C261.006409,199.245834 260.010345,198.492279 259.005676,196.996094 
	C258.330933,194.503525 257.664764,192.753601 256.998627,191.003662 
	C257.100739,190.679703 257.288818,190.417435 257.782654,190.107574 
	C258.429810,190.007874 258.857178,190.017471 259.603149,190.052612 
	C260.609772,193.121719 261.297852,196.165283 261.994171,199.604111 
z"/>
<path fill="#FDCF1E" opacity="1.000000" stroke="none" 
	d="
M156.637054,246.980606 
	C159.505188,248.152634 162.009903,249.300400 164.757919,250.723145 
	C163.715836,251.665253 162.482773,252.478958 161.131470,252.961517 
	C159.530731,253.533188 157.828049,253.819427 155.709839,254.614990 
	C154.500900,255.000809 153.751663,255.001022 153.002441,255.001221 
	C149.060867,254.979553 144.879959,255.660309 141.992599,250.807617 
	C146.011292,249.646240 149.839035,248.540054 153.883865,247.141510 
	C154.825165,246.884888 155.549393,246.920609 156.637054,246.980606 
z"/>
<path fill="#FBCB27" opacity="1.000000" stroke="none" 
	d="
M128.713120,237.919800 
	C125.268059,238.815567 125.268059,238.815567 125.034554,234.777222 
	C126.296005,235.708374 127.557449,236.639542 128.713120,237.919800 
z"/>
<path fill="#FECE1F" opacity="1.000000" stroke="none" 
	d="
M152.857666,259.147095 
	C153.536316,260.372223 153.856949,261.521332 154.177597,262.670471 
	C153.074615,262.198090 151.971649,261.725708 150.868683,261.253296 
	C151.412338,260.525909 151.955994,259.798523 152.857666,259.147095 
z"/>
<path fill="#FBCB27" opacity="1.000000" stroke="none" 
	d="
M118.684006,231.524750 
	C119.262543,232.578766 119.540359,233.480255 119.818176,234.381744 
	C119.171539,234.422836 118.524910,234.463943 117.878281,234.505051 
	C118.046616,233.460785 118.214943,232.416504 118.684006,231.524750 
z"/>
<path fill="#FBCB27" opacity="1.000000" stroke="none" 
	d="
M153.051849,255.335007 
	C153.751663,255.001022 154.500900,255.000809 155.624756,255.000610 
	C155.033356,255.223343 154.067307,255.446060 153.051849,255.335007 
z"/>
<path fill="#FBCB27" opacity="1.000000" stroke="none" 
	d="
M244.999695,177.999695 
	C245.179398,179.440475 245.359421,180.881577 245.720291,183.770493 
	C243.681061,182.498093 242.439301,181.723282 241.197540,180.948486 
	C242.212204,179.969803 243.226868,178.991135 244.621063,178.006531 
	C245.000610,178.000610 245.000000,178.000000 244.999695,177.999695 
z"/>
<path fill="#FBCB27" opacity="1.000000" stroke="none" 
	d="
M256.650818,191.007782 
	C257.664764,192.753601 258.330933,194.503525 258.997314,196.624298 
	C254.761215,194.861755 253.826187,192.785568 256.650818,191.007782 
z"/>
<path fill="#FBCB27" opacity="1.000000" stroke="none" 
	d="
M222.207245,177.797272 
	C222.569931,177.197113 222.995361,176.895355 223.420807,176.593597 
	C223.535416,177.039505 223.650040,177.485413 223.764664,177.931320 
	C223.266434,177.986115 222.768204,178.040894 222.207245,177.797272 
z"/>
</svg>